<svg viewBox="0 0 700 250" xmlns="http://www.w3.org/2000/svg" style="background:#090b10;">
  <g transform="translate(18,25) scale(0.77)"><defs><linearGradient id='bg_d' x1='0' y1='0' x2='140' y2='140' gradientUnits='userSpaceOnUse'><stop offset='0%' stop-color='#0b1e45'/><stop offset='100%' stop-color='#07122a'/></linearGradient><linearGradient id='gold' x1='0' y1='0' x2='140' y2='140' gradientUnits='userSpaceOnUse'><stop offset='0%' stop-color='#f5c842'/><stop offset='100%' stop-color='#c99f24'/></linearGradient></defs><polygon points="70,4 127,37 127,103 70,136 13,103 13,37" fill="url(#bg_d)"/><line x1="70" y1="4" x2="70" y2="70" stroke="rgba(255,255,255,0.06)" stroke-width="1"/><line x1="127" y1="103" x2="70" y2="70" stroke="rgba(255,255,255,0.06)" stroke-width="1"/><line x1="13" y1="103" x2="70" y2="70" stroke="rgba(255,255,255,0.06)" stroke-width="1"/><path d='M 94,36 L 56,36 C 41,36 38,48 38,58 C 38,68 49,70 60,70 L 80,70 C 91,70 102,72 102,82 C 102,92 99,104 84,104 L 46,104' fill='none' stroke='url(#gold)' stroke-width='16' stroke-linecap='round' stroke-linejoin='round'/><polygon points="94,26 104,36 94,46 84,36" fill="white"/><polygon points="38,48 48,58 38,68 28,58" fill="white"/><polygon points="70,60 80,70 70,80 60,70" fill="white"/><polygon points="102,72 112,82 102,92 92,82" fill="white"/><polygon points="46,94 56,104 46,114 36,104" fill="white"/></g>
  <text x="148" y="120" font-family="Rajdhani,sans-serif" font-size="64" font-weight="700" fill="white" letter-spacing="-1">STRUCTO<tspan fill="#f5c842">PRO</tspan></text>
  <text x="150" y="150" font-family="Inter,sans-serif" font-size="12" font-weight="600" fill="#94a3b8" letter-spacing="3">LA NORMA ES EL LÍMITE</text>
</svg>
